<svg width="736" height="412" viewBox="0 0 736 412" fill="none" xmlns="http://www.w3.org/2000/svg">
<ellipse cx="352.5" cy="181" rx="36.5" ry="35" fill="white"/>
<ellipse cx="406" cy="181" rx="29" ry="26" fill="white"/>
<ellipse cx="316.5" cy="181" rx="26.5" ry="26" fill="white"/>
<ellipse cx="377" cy="158.5" rx="30" ry="29.5" fill="white"/>
<path d="M443.198 293.509C444.707 290.762 448.646 290.738 450.187 293.467L473.075 333.992C474.576 336.649 472.668 339.941 469.616 339.959L424.322 340.228C421.27 340.246 419.323 336.977 420.793 334.302L443.198 293.509Z" fill="#4592D1"/>
<path d="M512.916 336.955C511.202 341.051 505.397 341.047 503.689 336.949L488.686 300.959C487.312 297.664 489.734 294.033 493.304 294.035L523.361 294.056C526.931 294.059 529.348 297.694 527.97 300.987L512.916 336.955Z" fill="#4592D1"/>
<path d="M511.857 295.235C521.45 301.61 540.705 298.902 574.722 299.418C621.21 293.59 545.23 272.5 554 272.5" stroke="#4592D1" stroke-width="19"/>
<rect x="441.148" y="216.304" width="87.7011" height="77.8347" rx="10" fill="#73B5EC"/>
<ellipse cx="443.889" cy="255.221" rx="41.658" ry="38.9174" fill="#73B5EC"/>
<path d="M563.93 255.221C563.93 276.714 545.156 294.138 521.998 294.138C498.839 294.138 480.066 276.714 480.066 255.221C480.066 233.727 498.839 216.304 521.998 216.304C545.156 216.304 563.93 233.727 563.93 255.221Z" fill="#73B5EC"/>
<path d="M448.129 250.288C449.117 250.288 449.929 251.091 449.82 252.074C449.424 255.632 447.856 258.971 445.343 261.528C442.413 264.509 438.44 266.184 434.297 266.184C430.154 266.184 426.18 264.509 423.25 261.528C420.738 258.971 419.169 255.632 418.774 252.074C418.665 251.091 419.476 250.288 420.464 250.288V250.288C421.453 250.288 422.241 251.093 422.382 252.071C422.757 254.661 423.94 257.079 425.781 258.953C428.04 261.251 431.103 262.542 434.297 262.542C437.491 262.542 440.554 261.251 442.812 258.953C444.653 257.079 445.837 254.661 446.211 252.071C446.353 251.093 447.141 250.288 448.129 250.288V250.288Z" fill="#434040" fill-opacity="0.6"/>
<path d="M460.881 270.569C458.852 274.326 456.758 275.502 453.578 275.502C450.399 275.502 448.258 274.095 446.63 270.858" stroke="#434040" stroke-opacity="0.6" stroke-width="4" stroke-linecap="round" stroke-linejoin="round"/>
<rect x="450" y="294" width="61.3908" height="46.0431" rx="1" fill="#4592D1"/>
<rect x="550.491" y="282.253" width="19.7876" height="12.1671" rx="3" transform="rotate(-66.386 550.491 282.253)" fill="#73B5EC"/>
<rect x="369.891" y="327.026" width="64.6796" height="13.2648" fill="#73B5EC"/>
<path d="M490.996 231.244C488.272 235.925 481.493 235.873 478.842 231.15L459.697 197.047C457.066 192.36 460.48 186.58 465.855 186.621L504.669 186.921C510.044 186.962 513.368 192.795 510.665 197.441L490.996 231.244Z" fill="#4592D1"/>
<rect width="23.1421" height="7.53273" rx="1" transform="matrix(0.000600427 1 -0.999994 0.00339957 372.491 317.16)" fill="#4592D1"/>
<ellipse rx="11.1031" ry="3.76814" transform="matrix(0.000600427 1 -0.999994 0.00339957 368.733 318.958)" fill="#4592D1"/>
<path d="M487.594 250.288C488.583 250.288 489.394 251.091 489.285 252.074C488.89 255.632 487.321 258.971 484.808 261.528C481.879 264.509 477.905 266.184 473.762 266.184C469.619 266.184 465.646 264.509 462.716 261.528C460.203 258.971 458.635 255.632 458.239 252.074C458.13 251.091 458.942 250.288 459.93 250.288V250.288C460.918 250.288 461.706 251.093 461.848 252.071C462.222 254.661 463.406 257.079 465.247 258.953C467.505 261.251 470.568 262.542 473.762 262.542C476.956 262.542 480.019 261.251 482.278 258.953C484.119 257.079 485.302 254.661 485.677 252.071C485.818 251.093 486.606 250.288 487.594 250.288V250.288Z" fill="#434040" fill-opacity="0.6"/>
<path d="M443.615 313.323C442.298 315.54 437.512 318.804 430.028 318.804C422.544 318.804 417.018 316.587 415.934 314.967" stroke="#E7E7E7" stroke-width="4" stroke-linecap="round"/>
<path d="M443.615 313.323C445.259 310.856 449.76 308.048 457.318 308.116C464.876 308.184 470.199 313.597 472.118 314.693" stroke="#E7E7E7" stroke-width="4" stroke-linecap="round"/>
<path d="M499.798 313.871C498.428 315.515 493.422 318.804 485.937 318.804C478.453 318.804 471.844 314.693 470.747 313.871" stroke="#E7E7E7" stroke-width="4" stroke-linecap="round"/>
<path d="M499.524 314.145C501.169 312.501 505.744 308.048 513.228 308.116C520.712 308.183 531.069 316.352 532.138 317.982" stroke="#E7E7E7" stroke-width="4" stroke-linecap="round"/>
<path d="M443.615 321.394C442.298 323.611 437.512 326.875 430.028 326.875C422.544 326.875 417.018 324.658 415.934 323.038" stroke="#E7E7E7" stroke-width="4" stroke-linecap="round"/>
<path d="M443.615 321.394C445.259 318.927 449.76 316.119 457.318 316.187C464.876 316.255 470.199 321.668 472.118 322.764" stroke="#E7E7E7" stroke-width="4" stroke-linecap="round"/>
<path d="M499.798 321.942C498.428 323.586 493.422 326.875 485.937 326.875C478.453 326.875 471.844 322.764 470.747 321.942" stroke="#E7E7E7" stroke-width="4" stroke-linecap="round"/>
<path d="M499.524 322.216C501.169 320.572 505.744 316.119 513.228 316.187C520.712 316.254 531.069 324.423 532.138 326.053" stroke="#E7E7E7" stroke-width="4" stroke-linecap="round"/>
<ellipse cx="366.328" cy="345.663" rx="6.30352" ry="5.48132" fill="#EAE1D9"/>
<ellipse cx="536.249" cy="345.663" rx="6.30352" ry="5.48132" fill="#EAE1D9"/>
<rect x="364.958" y="340.181" width="173.21" height="10.9626" fill="#EAE1D9"/>
<path d="M217.471 315.759C232.788 295.554 263.161 295.554 278.478 315.759V315.759C297.59 340.968 279.609 377.162 247.975 377.162V377.162C216.34 377.162 198.36 340.968 217.471 315.759V315.759Z" fill="#7A7482"/>
<rect x="250.191" y="314.152" width="10.1324" height="55.0947" rx="4" fill="#F6C471" fill-opacity="0.7"/>
<rect x="233.093" y="314.152" width="10.1324" height="55.0947" rx="4" fill="#F6C471" fill-opacity="0.7"/>
<rect x="233.093" y="355.948" width="10.1324" height="12.0322" fill="#8ED1CD"/>
<rect x="250.191" y="355.948" width="10.1324" height="12.0322" fill="#8ED1CD"/>
<rect x="216.628" y="257.157" width="63.9605" height="62.0607" rx="6" fill="#8ED1CD"/>
<path d="M253.041 317.635C261.273 308.452 313.939 311.956 318 301.5C320.954 293.896 307 283 293.5 276" stroke="#F6C471" stroke-width="14" stroke-linecap="round"/>
<path d="M243.542 317.635C238.476 310.669 193.632 314.785 189.714 304.336C186.864 296.737 193.09 283.64 204.577 275.724" stroke="#F6C471" stroke-width="15" stroke-linecap="round"/>
<path d="M218.142 256.707C220.403 255.121 223.521 255.667 225.107 257.927L228.128 262.231C229.714 264.492 229.168 267.61 226.907 269.196L204.677 284.797C202.417 286.383 199.299 285.837 197.712 283.577L194.692 279.273C193.105 277.012 193.652 273.894 195.912 272.308L218.142 256.707Z" fill="#8ED1CD"/>
<rect x="271.381" y="270.798" width="15.1001" height="37.1582" rx="5" transform="rotate(-57.3443 271.381 270.798)" fill="#8ED1CD"/>
<rect x="168.499" y="193.197" width="160.218" height="70.2932" rx="22" fill="#F6C471"/>
<ellipse cx="197.63" cy="203.646" rx="29.1305" ry="31.9803" fill="#F6C471"/>
<ellipse cx="299.586" cy="197.313" rx="29.1305" ry="38.313" fill="#F6C471"/>
<ellipse cx="242.275" cy="209.978" rx="22.4812" ry="38.313" fill="#F6C471"/>
<ellipse cx="264.44" cy="216.944" rx="16.1484" ry="38.313" fill="#F6C471"/>
<path d="M241.412 226.76C242.413 226.76 243.233 227.574 243.148 228.572C242.789 232.777 241.187 236.732 238.588 239.746C235.619 243.19 231.592 245.125 227.393 245.125C223.195 245.125 219.168 243.19 216.199 239.746C213.6 236.732 211.998 232.777 211.639 228.572C211.554 227.574 212.374 226.76 213.375 226.76V226.76C214.377 226.76 215.178 227.575 215.289 228.57C215.632 231.657 216.846 234.546 218.763 236.771C221.052 239.426 224.157 240.918 227.393 240.918C230.63 240.918 233.735 239.426 236.023 236.771C237.941 234.546 239.155 231.657 239.498 228.57C239.609 227.575 240.41 226.76 241.412 226.76V226.76Z" fill="#434040" fill-opacity="0.6"/>
<path d="M278.738 226.76C279.76 226.76 280.597 227.59 280.506 228.608C280.134 232.8 278.502 236.74 275.859 239.746C272.83 243.19 268.723 245.125 264.44 245.125C260.157 245.125 256.05 243.19 253.021 239.746C250.378 236.74 248.746 232.8 248.373 228.608C248.283 227.59 249.12 226.76 250.141 226.76V226.76C251.163 226.76 251.98 227.591 252.097 228.606C252.453 231.68 253.689 234.555 255.637 236.771C257.972 239.426 261.138 240.918 264.44 240.918C267.741 240.918 270.908 239.426 273.242 236.771C275.191 234.555 276.427 231.68 276.782 228.606C276.9 227.591 277.717 226.76 278.738 226.76V226.76Z" fill="#434040" fill-opacity="0.6"/>
<path d="M255.257 248.925C254.383 250.477 251.146 252.091 246.075 252.091C241.004 252.091 237.476 250.042 236.893 248.925" stroke="#434040" stroke-opacity="0.6" stroke-width="4" stroke-linecap="round"/>
<path d="M169.533 195.418C170.14 192.49 171.338 189.717 173.053 187.268L176.671 182.102C177.55 180.847 178.557 179.688 179.676 178.642L180.338 178.024C181.929 176.538 183.739 175.304 185.703 174.366V174.366C187.258 173.624 188.897 173.073 190.585 172.725L194.187 171.982V171.982C203.024 169.555 209.089 180.717 202.244 186.811L201.334 187.621C200.486 188.376 199.789 189.285 199.281 190.3L195.172 198.511C194.517 199.82 193.994 201.191 193.611 202.604L189.971 216.036C188.721 220.652 189.008 225.549 190.789 229.986L196.295 243.702C200.098 253.174 193.123 263.49 182.916 263.49V263.49C174.954 263.49 168.499 257.035 168.499 249.073V221.272V203.543C168.499 202.438 168.582 201.334 168.748 200.242L169.337 196.363L169.533 195.418Z" fill="#F6914E" fill-opacity="0.5"/>
<rect x="229.927" y="367.347" width="15.8318" height="7.59927" rx="3.79963" fill="#F6914E"/>
<rect x="247.658" y="367.347" width="15.8318" height="7.59927" rx="3.79963" fill="#F6914E"/>
<ellipse cx="84.5" cy="70" rx="48.5" ry="47" fill="white"/>
<ellipse cx="156" cy="70" rx="39" ry="34" fill="white"/>
<ellipse cx="35" cy="70" rx="35" ry="34" fill="white"/>
<ellipse cx="117.5" cy="40" rx="40.5" ry="40" fill="white"/>
<ellipse cx="611.5" cy="126" rx="54.5" ry="53" fill="white"/>
<ellipse cx="692" cy="127" rx="44" ry="39" fill="white"/>
<ellipse cx="556.5" cy="127" rx="39.5" ry="39" fill="white"/>
<ellipse cx="648" cy="92.5" rx="46" ry="44.5" fill="white"/>
</svg>
